<?xml version="1.0" encoding="utf-8"?>
<!-- Generator: Adobe Illustrator 25.0.0, SVG Export Plug-In . SVG Version: 6.00 Build 0)  -->
<svg version="1.1"
	 id="svg2" xmlns:cc="http://creativecommons.org/ns#" xmlns:dc="http://purl.org/dc/elements/1.1/" xmlns:rdf="http://www.w3.org/1999/02/22-rdf-syntax-ns#"
	 xmlns="http://www.w3.org/2000/svg" xmlns:xlink="http://www.w3.org/1999/xlink" x="0px" y="0px" viewBox="0 0 320 320"
	 style="enable-background:new 0 0 320 320;" xml:space="preserve">
<style type="text/css">
	.st0{fill:#FFFFFF;}
	.st1{fill:#FF9B24;}
</style>
<g>
	<path class="st0" d="M222.1,12.6C202.5,4.2,181.7,0,159.7,0S117,4.2,97.4,12.6c-19.6,8.4-36.5,19.8-50.8,34.3
		C32.3,61.4,21,78.4,12.6,97.9C4.2,117.5,0,138.3,0,160.3c0,22,4.2,42.8,12.6,62.3c8.4,19.6,19.7,36.5,34,50.8
		c14.3,14.3,31.2,25.7,50.8,34c19.6,8.4,40.3,12.6,62.3,12.6s42.8-4.2,62.3-12.6c19.5-8.4,36.6-19.7,51.1-34
		c14.5-14.3,25.9-31.2,34.3-50.8c8.4-19.5,12.6-40.3,12.6-62.3c0-22-4.2-42.8-12.6-62.3c-8.4-19.6-19.8-36.6-34.3-51.1
		C258.6,32.4,241.6,20.9,222.1,12.6z M273.1,133.7c0,4-3.3,7.3-7.3,7.3h-26.6V179h26.6c4,0,7.3,3.3,7.3,7.3v5.4c0,4-3.3,7.3-7.3,7.3
		h-26.6v17.2c0,12.6-10.2,22.9-22.9,22.9H199v26.6c0,4-3.3,7.3-7.3,7.3h-5.4c-4,0-7.3-3.3-7.3-7.3v-26.6H141v26.6
		c0,4-3.3,7.3-7.3,7.3h-5.4c-4.1,0-7.3-3.3-7.3-7.3v-26.6h-17.2c-12.7,0-22.9-10.3-22.9-22.9V199H54.2c-4.1,0-7.3-3.3-7.3-7.3v-5.4
		c0-4,3.3-7.3,7.3-7.3h26.6V141H54.2c-4.1,0-7.3-3.3-7.3-7.3v-5.4c0-4.1,3.3-7.3,7.3-7.3h26.6v-17.2c0-12.7,10.2-22.9,22.9-22.9H121
		V54.2c0-4,3.3-7.3,7.3-7.3h5.4c4,0,7.3,3.3,7.3,7.3v26.6H179V54.2c0-4,3.3-7.3,7.3-7.3h5.4c4,0,7.3,3.3,7.3,7.3v26.6h17.2
		c12.7,0,22.9,10.2,22.9,22.9V121h26.6c4,0,7.3,3.3,7.3,7.3V133.7z"/>
	<rect x="122.2" y="122.1" class="st1" width="75.7" height="75.7"/>
</g>
</svg>
