<?xml version="1.0" encoding="utf-8"?>
<!-- Generator: Adobe Illustrator 25.0.0, SVG Export Plug-In . SVG Version: 6.00 Build 0)  -->
<svg version="1.1" xmlns="http://www.w3.org/2000/svg" xmlns:xlink="http://www.w3.org/1999/xlink" x="0px" y="0px"
	 viewBox="0 0 1543.4 320" style="enable-background:new 0 0 1543.4 320;" xml:space="preserve">
<style type="text/css">
	.st0{display:none;}
	.st1{display:inline;}
	.st2{fill:#FFFFFF;}
	.st3{fill:#FF9B24;}
	.st4{fill:#E84242;}
</style>
<g id="Layer_2" class="st0">
	<rect x="0" class="st1" width="1543.4" height="320"/>
</g>
<g id="svg2" xmlns:cc="http://creativecommons.org/ns#" xmlns:dc="http://purl.org/dc/elements/1.1/" xmlns:rdf="http://www.w3.org/1999/02/22-rdf-syntax-ns#">
	<g>
		<g>
			<path class="st2" d="M428.2,12.6C408.6,4.2,387.9,0,365.9,0c-22,0-42.8,4.2-62.3,12.6c-19.6,8.4-36.5,19.8-50.8,34.3
				c-14.3,14.5-25.7,31.5-34,51.1c-8.4,19.6-12.6,40.3-12.6,62.3c0,22,4.2,42.8,12.6,62.3c8.4,19.6,19.7,36.5,34,50.8
				c14.3,14.3,31.2,25.6,50.8,34c19.6,8.4,40.3,12.6,62.3,12.6c22,0,42.8-4.2,62.3-12.6c19.5-8.4,36.6-19.7,51.1-34
				c14.5-14.3,25.9-31.2,34.3-50.8c8.4-19.5,12.6-40.3,12.6-62.3c0-22-4.2-42.8-12.6-62.3c-8.4-19.6-19.8-36.6-34.3-51.1
				C464.8,32.4,447.8,20.9,428.2,12.6z M479.3,133.7c0,4-3.3,7.3-7.3,7.3h-26.6V179h26.6c4,0,7.3,3.3,7.3,7.3v5.4
				c0,4-3.3,7.3-7.3,7.3h-26.6v17.2c0,12.6-10.2,22.9-22.9,22.9h-17.2v26.6c0,4-3.3,7.3-7.3,7.3h-5.4c-4,0-7.3-3.3-7.3-7.3v-26.6
				h-37.9v26.6c0,4-3.3,7.3-7.3,7.3h-5.4c-4.1,0-7.3-3.3-7.3-7.3v-26.6h-17.2c-12.7,0-22.9-10.3-22.9-22.9V199h-26.6
				c-4.1,0-7.3-3.3-7.3-7.3v-5.4c0-4,3.3-7.3,7.3-7.3H287V141h-26.6c-4.1,0-7.3-3.3-7.3-7.3v-5.4c0-4.1,3.3-7.3,7.3-7.3H287v-17.2
				c0-12.7,10.2-22.9,22.9-22.9h17.2V54.2c0-4,3.3-7.3,7.3-7.3h5.4c4,0,7.3,3.3,7.3,7.3v26.6h37.9V54.2c0-4,3.3-7.3,7.3-7.3h5.4
				c4,0,7.3,3.3,7.3,7.3v26.6h17.2c12.7,0,22.9,10.2,22.9,22.9V121h26.6c4,0,7.3,3.3,7.3,7.3V133.7z"/>
			<rect x="328.3" y="122.1" class="st3" width="75.7" height="75.7"/>
		</g>
		<g>
			<g>
				<path class="st2" d="M589.1,151.2c-10.3,0-15.4-5.4-15.4-16.2c0-10.9,5.3-16.4,15.8-16.4h43.5c4.3,0,6.5-1.6,6.5-4.9
					c0-3.3-2.2-4.9-6.5-4.9h-42.7c-10.4,0-15.6-5.5-15.6-16.4c0-10.8,5.1-16.2,15.3-16.2h43c4.3,0,6.5-1.6,6.5-4.9
					c0-3.3-2.2-4.9-6.5-4.9h-43.5c-10,0-15-5.5-15-16.4c0-10.8,4.9-16.2,14.7-16.2h54.9c5.1,0,9.6,0.8,13.3,2.3
					c3.7,1.5,6.8,3.6,9.1,6.3c2.4,2.7,4.1,5.9,5.3,9.6c1.2,3.7,1.7,7.8,1.7,12.2c0,7.9-1.9,14.3-5.8,19.2c-3.8,4.9-9.4,7.9-16.6,9
					c7.3,1.2,12.8,4.2,16.8,9.2c3.9,5,5.9,11.4,5.9,19.3c0,4.4-0.6,8.5-1.7,12.2c-1.2,3.7-2.9,6.9-5.3,9.6c-2.4,2.7-5.4,4.8-9,6.2
					c-3.6,1.5-8,2.2-13,2.2H589.1z"/>
				<path class="st2" d="M821.6,151.2c-10.4,0-15.6-5.3-15.6-15.8c0-11.2,5.3-16.9,15.8-16.9h43.5c4.3,0,6.5-1.6,6.5-4.9
					c0-3.3-2.2-4.9-6.5-4.9h-26.5c-23-0.6-34.5-13.1-34.5-37.5c0-25,12.3-37.5,36.9-37.5h35.8c10.3,0,15.4,5.3,15.4,15.8
					c0,11.2-5.2,16.9-15.6,16.9h-37.8c-4.3,0-6.5,1.6-6.5,4.9c0,3.3,2.1,4.9,6.4,4.9h26.6c23,0.6,34.4,13.1,34.4,37.5
					c0,25-12.1,37.5-36.4,37.5H821.6z"/>
				<path class="st2" d="M942,151.2c-5,0-9.4-0.7-13-2.2c-3.6-1.5-6.6-3.5-9-6.2c-2.4-2.7-4.1-5.9-5.3-9.6
					c-1.2-3.7-1.7-7.8-1.7-12.2c0-7.9,2-14.3,5.9-19.3c3.9-5,9.5-8.1,16.8-9.2c-7.3-1-12.7-4-16.5-9c-3.7-4.9-5.6-11.4-5.6-19.2
					c0-4.4,0.6-8.5,1.7-12.2c1.2-3.7,2.9-6.9,5.3-9.6c2.4-2.7,5.4-4.8,9.1-6.3c3.7-1.5,8.1-2.3,13.2-2.3h61.3
					c9.9,0,14.8,5.4,14.8,16.2c0,10.9-5,16.4-15,16.4h-50.3c-4.3,0-6.5,1.6-6.5,4.9c0,3.3,2.2,4.9,6.5,4.9h48.9
					c10.2,0,15.3,5.4,15.3,16.2c0,10.9-5.2,16.4-15.4,16.4h-48.7c-4.3,0-6.5,1.6-6.5,4.9c0,3.3,2.2,4.9,6.5,4.9h49.5
					c10.5,0,15.8,5.5,15.8,16.4c0,10.8-5.2,16.2-15.6,16.2H942z"/>
				<path class="st2" d="M1084.4,50c0-5.4,1.6-9.4,4.8-12.1c3.2-2.7,7-4,11.4-4s8.2,1.4,11.4,4.2c3.2,2.8,4.7,6.8,4.7,11.9v85
					c0,5.4-1.6,9.4-4.7,12.1c-3.2,2.7-6.9,4-11.4,4s-8.2-1.3-11.4-4c-3.2-2.7-4.8-6.7-4.8-12.1V50z"/>
				<path class="st2" d="M1249.4,92.1c0,8.4-1.6,16.2-4.7,23.5c-3.2,7.3-7.5,13.6-12.9,19c-5.5,5.4-11.9,9.7-19.2,12.8
					c-7.3,3.1-15.1,4.7-23.4,4.7c-8.3,0-16.1-1.5-23.3-4.7c-7.3-3.1-13.6-7.4-19-12.8c-5.4-5.4-9.7-11.7-12.8-19
					c-3.2-7.3-4.7-15.1-4.7-23.5c0-8.3,1.6-16.1,4.7-23.4c3.2-7.3,7.4-13.7,12.8-19.1c5.4-5.4,11.7-9.7,19-12.8
					c7.3-3.2,15-4.7,23.3-4.7c8.3,0,16.1,1.6,23.4,4.7c7.3,3.2,13.7,7.4,19.2,12.8c5.5,5.4,9.8,11.8,12.9,19.1
					C1247.9,76,1249.4,83.8,1249.4,92.1z M1216.8,92.4c0-3.8-0.7-7.3-2.1-10.6c-1.4-3.3-3.4-6.2-5.8-8.7c-2.5-2.5-5.4-4.4-8.7-5.8
					c-3.3-1.4-6.9-2.1-10.6-2.1c-3.8,0-7.3,0.7-10.6,2.1s-6.2,3.4-8.6,5.8c-2.4,2.5-4.3,5.4-5.8,8.7c-1.4,3.3-2.1,6.9-2.1,10.6
					s0.7,7.3,2.1,10.6c1.4,3.3,3.3,6.2,5.8,8.6c2.4,2.4,5.3,4.3,8.6,5.8c3.3,1.4,6.9,2.1,10.6,2.1c3.8,0,7.3-0.7,10.6-2.1
					c3.3-1.4,6.2-3.3,8.7-5.8c2.5-2.4,4.4-5.3,5.8-8.6C1216.1,99.7,1216.8,96.2,1216.8,92.4z"/>
				<path class="st2" d="M1277.5,66.4h-11.4c-5.2,0-9.2-1.6-12.1-4.9c-2.9-3.3-4.3-7.1-4.3-11.5s1.4-8.2,4.3-11.4
					c2.9-3.2,6.9-4.8,12.1-4.8h54.7c5.1,0,9.2,1.6,12.1,4.8c2.9,3.2,4.3,7,4.3,11.4s-1.4,8.3-4.3,11.5c-2.9,3.3-6.9,4.9-12.1,4.9
					h-11V135c0,5.4-1.6,9.4-4.8,12.1c-3.2,2.7-7,4-11.4,4s-8.2-1.3-11.4-4c-3.2-2.7-4.7-6.7-4.7-12.1V66.4z"/>
				<g>
					<path class="st4" d="M790.6,132.8c-0.1-1.1-0.3-2.3-0.9-3.4L754,43.2c-1.6-3.7-3.6-6.4-6.1-8.1c-2.5-1.7-5.3-2.5-8.3-2.5
						c-0.5,0-0.9,0-1.4,0.1c-0.5,0-0.9-0.1-1.4-0.1c-3.1,0-5.8,0.9-8.3,2.5c-2.5,1.7-4.5,4.4-6.1,8.1l-35.7,86.2
						c-0.5,1.2-0.8,2.3-0.9,3.4c-0.1,1.1-0.2,2.1-0.4,3.1c0,2.3,0.5,4.5,1.5,6.4c1,1.9,2.3,3.6,4,4.9c1.6,1.4,3.5,2.4,5.6,3.2
						c2.1,0.7,4.3,1.1,6.5,1.1c6.6,0,11.3-3.6,14.3-10.7l2.4-5.7l12.2-29.6l6.3-15.2l6.3,15.2l12.2,29.6l2.4,5.7
						c3,7.1,7.7,10.7,14.3,10.7c2.2,0,4.4-0.4,6.5-1.1c2.1-0.7,4-1.8,5.6-3.2c1.6-1.4,3-3,4-4.9c1-1.9,1.5-4,1.5-6.4
						C790.7,135,790.6,133.9,790.6,132.8z"/>
				</g>
			</g>
			<g>
				<path class="st2" d="M604.6,271.3c0,10.6-5.2,15.9-15.5,15.9c-5.2,0-9.1-1.3-11.7-4c-2.6-2.7-3.8-6.5-3.8-11.5V191
					c0-10.3,5-15.5,14.9-15.5H620c6.7,0,12.5,1,17.5,3.1c4.9,2.1,9,4.8,12.1,8.1c3.2,3.4,5.5,7.2,7.1,11.5c1.6,4.3,2.3,8.7,2.3,13.2
					c0,4.5-0.7,8.8-2.1,13.1c-1.4,4.2-3.5,8-6.4,11.3c-2.8,3.3-6.2,6-10.3,8c-4,2.1-8.7,3.1-13.9,3.1h-5c-9.3,0-14-4.2-14-12.5
					c0-3,0.6-5.3,1.7-6.8c1.1-1.6,2.6-2.7,4.3-3.6c1.7-0.8,3.6-1.4,5.6-1.7c2-0.3,3.9-0.7,5.6-1.3c1.7-0.6,3.2-1.4,4.5-2.5
					c1.2-1.1,1.9-2.9,2.1-5.2c0-5.6-3.2-8.4-9.7-8.4h-16.6V271.3z"/>
				<path class="st2" d="M682.6,287.2c-10.2,0-15.3-5.2-15.3-15.5V191c0-5,1.5-8.8,4.6-11.4c3.1-2.6,6.6-3.9,10.7-3.9
					s7.7,1.3,10.7,3.9c3.1,2.6,4.6,6.4,4.6,11.4v65.2h16.4c4.7,0,8.3,1.5,10.8,4.6c2.5,3.1,3.7,6.7,3.7,10.9c0,4.2-1.2,7.9-3.7,10.9
					c-2.5,3.1-6.1,4.6-10.8,4.6H682.6z"/>
				<path class="st2" d="M801.8,265.5h-33.1l-4.7,12c-1.4,3.5-3.3,6-5.7,7.6c-2.4,1.6-5.1,2.3-7.9,2.3c-2.1,0-4.1-0.3-6.1-1
					c-1.9-0.7-3.7-1.7-5.3-3c-1.6-1.3-2.9-2.8-3.8-4.6c-0.9-1.7-1.4-3.7-1.4-6c0-2.2,0.4-4.3,1.3-6.2l36.8-81.3
					c1.6-3.5,3.8-6.1,6.5-7.8c2.7-1.7,5.5-2.6,8.4-2.6c2.9,0,5.6,0.9,8.3,2.6c2.7,1.7,4.7,4.4,6.1,7.8l33.8,81.3
					c0.9,1.9,1.3,3.9,1.3,6.2c0,2.1-0.5,4.1-1.4,5.9c-0.9,1.8-2.2,3.4-3.8,4.7c-1.6,1.3-3.4,2.3-5.4,3c-2,0.7-4,1-6,1
					c-2.9,0-5.5-0.8-8-2.3c-2.5-1.6-4.4-4.1-5.6-7.6L801.8,265.5z M778.4,241.3h14.9l-6.9-20L778.4,241.3z"/>
				<path class="st2" d="M884.2,271.7c0,5-1.5,8.8-4.6,11.4c-3.1,2.6-6.7,3.9-10.9,3.9c-4.1,0-7.7-1.3-10.7-3.9
					c-3.1-2.6-4.6-6.4-4.6-11.4v-65.2h-10.8c-4.9,0-8.7-1.5-11.4-4.6c-2.7-3.1-4.1-6.7-4.1-10.9c0-4.2,1.4-7.9,4.1-10.9
					c2.7-3.1,6.5-4.6,11.4-4.6h52.1c4.9,0,8.7,1.5,11.4,4.6c2.7,3.1,4.1,6.7,4.1,10.9c0,4.2-1.4,7.9-4.1,10.9
					c-2.7,3.1-6.5,4.6-11.4,4.6h-10.5V271.7z"/>
				<path class="st2" d="M950.3,271.7c0,5-1.5,8.8-4.6,11.4c-3.1,2.6-6.6,3.9-10.7,3.9s-7.7-1.3-10.7-3.9c-3.1-2.6-4.6-6.4-4.6-11.4
					V191c0-10.3,5.1-15.5,15.3-15.5h52.3c4.9,0,8.7,1.5,11.4,4.6c2.7,3.1,4.1,6.7,4.1,10.9c0,4.2-1.4,7.9-4.1,10.9
					c-2.7,3.1-6.5,4.6-11.4,4.6h-37v9.3h29.5c4.9,0,8.7,1.5,11.4,4.6c2.7,3.1,4.1,6.7,4.1,10.9c0,4.2-1.4,7.9-4.1,10.9
					c-2.7,3.1-6.5,4.6-11.4,4.6h-29.5V271.7z"/>
				<path class="st2" d="M1006.9,231c0-7.8,1.5-15.3,4.5-22.2c3-7,7-13,12.1-18.2c5.1-5.2,11.1-9.2,18.1-12.2c7-3,14.4-4.5,22.2-4.5
					c7.8,0,15.3,1.5,22.2,4.5c7,3,13,7.1,18.2,12.2c5.2,5.2,9.2,11.2,12.2,18.2c3,7,4.5,14.4,4.5,22.2c0,7.8-1.5,15.3-4.5,22.2
					c-3,7-7.1,13-12.2,18.1c-5.2,5.1-11.2,9.2-18.2,12.1c-7,3-14.4,4.5-22.2,4.5c-7.8,0-15.3-1.5-22.2-4.5c-7-3-13-7-18.1-12.1
					c-5.1-5.1-9.2-11.1-12.1-18.1C1008.4,246.2,1006.9,238.8,1006.9,231z M1038.3,231.3c0,3.6,0.7,7,2,10.1c1.3,3.1,3.1,5.9,5.5,8.2
					c2.4,2.4,5.1,4.2,8.2,5.5c3.1,1.3,6.5,2,10.1,2c3.6,0,7-0.7,10.2-2c3.2-1.3,5.9-3.1,8.2-5.5c2.3-2.4,4.1-5.1,5.5-8.2
					c1.4-3.1,2.1-6.5,2.1-10.1c0-3.6-0.7-7-2.1-10.2c-1.4-3.2-3.2-5.9-5.5-8.2c-2.3-2.3-5-4.1-8.2-5.5c-3.2-1.4-6.6-2.1-10.2-2.1
					c-3.6,0-7,0.7-10.1,2.1c-3.1,1.4-5.9,3.2-8.2,5.5c-2.4,2.3-4.2,5-5.5,8.2C1039,224.3,1038.3,227.7,1038.3,231.3z"/>
				<path class="st2" d="M1170.4,247.8c-3.1-4.2-4.7-8.7-4.7-13.5c0-3,0.6-5.3,1.7-6.8c1.1-1.6,2.6-2.7,4.3-3.6
					c1.7-0.8,3.6-1.4,5.6-1.7c2-0.3,3.9-0.7,5.6-1.3c1.7-0.6,3.2-1.4,4.5-2.5c1.2-1.1,1.9-2.9,2.1-5.2c0-5.6-3.2-8.4-9.7-8.4h-16.6
					v66.5c0,10.6-5.2,15.9-15.5,15.9c-5.2,0-9.1-1.3-11.7-4c-2.6-2.7-3.8-6.5-3.8-11.5V191c0-10.3,5-15.5,14.9-15.5h33.3
					c6.5,0,12.1,1,16.9,2.9c4.8,1.9,8.7,4.5,11.9,7.7c3.1,3.2,5.4,6.8,6.9,10.8c1.5,4.1,2.2,8.2,2.2,12.4c0,6.4-1.6,12.3-4.8,17.9
					c-3.2,5.6-7.9,9.8-14.1,12.7l13.3,21.1c2,3.2,3,6.5,3,9.9c0,2.2-0.4,4.4-1.3,6.4c-0.9,2-2,3.7-3.5,5.2c-1.4,1.5-3.1,2.6-5,3.5
					c-1.9,0.8-3.8,1.2-5.8,1.2c-2.2,0-4.5-0.7-6.6-2c-2.2-1.3-4.1-3.4-5.7-6.3L1170.4,247.8z"/>
				<path class="st2" d="M1260.8,271.7c0,5-1.5,8.8-4.6,11.4c-3.1,2.6-6.7,3.9-10.9,3.9c-4.1,0-7.7-1.3-10.7-3.9
					c-3.1-2.6-4.6-6.4-4.6-11.4v-79c0-6,1.1-10.3,3.2-13c2.1-2.7,6-4,11.6-4c5.1,0,9,0.8,11.7,2.4c2.7,1.6,5.1,3.9,7.4,6.7l20.4,26
					l20.2-26.2c2.1-2.7,4.5-4.9,7.2-6.5c2.7-1.6,6.2-2.4,10.6-2.4c5.6,0,9.5,1.3,11.8,4c2.2,2.7,3.4,7,3.4,13v79
					c0,5-1.5,8.8-4.6,11.4c-3.1,2.6-6.7,3.9-10.9,3.9c-4.1,0-7.7-1.3-10.7-3.9c-3.1-2.6-4.6-6.4-4.6-11.4v-47.1l-13.8,18.3
					c-3,3.7-6.1,5.6-9.3,5.6c-3.4,0-6.4-1.9-9.2-5.8l-13.3-18.1V271.7z"/>
			</g>
		</g>
	</g>
</g>
</svg>
